 <svg viewBox="0 0 24 24" xmlns="http://www.w3.org/2000/svg" width="24" height="24" fill="none"><style>@keyframes cake{10%,30%,50%,70%,90%{transform:translate3d(-.5px,0,0)}20%,40%,60%,80%{transform:translate3d(.5px,0,0)}}</style><path fill="#ffffff" fill-rule="evenodd" d="M8.926 10.644h7.995a1.5 1.5 0 011.5 1.5v.547l-.99 1.048a.482.482 0 01-.725-.018l-.613-.717a1.446 1.446 0 00-2.216-.01l-.59.68a.482.482 0 01-.745-.01l-.503-.61a1.447 1.447 0 00-2.248-.014l-.584.69a.481.481 0 01-.72.028l-1.061-1.08v-.534a1.5 1.5 0 011.5-1.5zm-3 1.974v3.526a3 3 0 003 3h7.995a3 3 0 003-3v-4a3 3 0 00-3-3H8.926a3 3 0 00-3 3v.465l-.005.004.005.005zm1.5 1.526l.369.376a1.444 1.444 0 002.158-.086l.583-.69a.482.482 0 01.75.004l.503.61a1.446 1.446 0 002.234.03l.59-.678a.482.482 0 01.739.003l.612.716a1.445 1.445 0 002.174.057l.283-.3v1.958a1.5 1.5 0 01-1.5 1.5H8.926a1.5 1.5 0 01-1.5-1.5v-2z" clip-rule="evenodd"/><path fill="#ef4444" d="M12.488 3.853a.5.5 0 01.866 0l.878 1.52a1.513 1.513 0 11-2.622 0l.878-1.52z" style="animation:cake 2s ease infinite"/></svg>