 <svg viewBox="0 0 24 24" xmlns="http://www.w3.org/2000/svg" width="24" height="24" fill="none"><style>@keyframes slide-tr{0%{transform:translateY(0) translateX(0)}to{transform:translateY(-2px) translateX(2px)}}</style><path stroke="#3b82f6" stroke-width="1.5" d="M17.82 16.889a7 7 0 001.162-3.39A.473.473 0 0018.5 13h-6a.5.5 0 01-.5-.5v-6a.473.473 0 00-.5-.482 7 7 0 106.32 10.871z"/><path stroke="#265BFF" stroke-width="1.5" d="M19 11c.552 0 1.009-.45.917-.995a6 6 0 00-4.922-4.922C14.451 4.992 14 5.448 14 6v4a1 1 0 001 1h4z" style="animation:slide-tr 1s cubic-bezier(.47,0,.745,.715) infinite alternate-reverse both"/></svg>